<svg width="97" height="39" viewBox="0 0 97 39" fill="none" xmlns="http://www.w3.org/2000/svg">
<path d="M41.2693 10.6694C41.2425 16.2714 41.2559 22.5988 41.2962 24.7482L41.3634 28.644H42.9755H44.5875L44.6278 14.5653L44.6547 0.499947H42.9755H41.2962L41.2693 10.6694Z" fill="white"/>
<path d="M46.5352 8.85582C46.5352 13.4637 46.5755 19.8045 46.6292 22.9615L46.7098 28.7112H48.2816H49.8533L49.9608 21.6584C50.0145 17.776 50.0145 11.4351 49.9608 7.55273L49.8533 0.499912H48.201H46.5352V8.85582Z" fill="white"/>
<path d="M9.64573 7.82147C7.02611 8.22449 5.13193 9.15143 3.22431 10.965C1.31669 12.792 0.349446 14.7534 0.0673338 17.3327C-0.375986 21.3226 1.38386 24.8826 4.93042 27.2066C6.95894 28.5366 9.08151 29.1143 11.9429 29.1143C14.6163 29.1143 16.6582 28.6172 18.4584 27.5291C21.5348 25.6617 23.2946 22.8406 23.6439 19.2269C23.7245 18.2731 23.7245 18.2731 23.3618 18.179C22.8782 18.0581 12.1041 18.0984 11.8892 18.2193C11.7817 18.2865 11.7414 18.6224 11.7683 19.2537L11.8086 20.1807L15.8119 20.221C18.2031 20.2344 19.8018 20.3016 19.8018 20.3822C19.8018 20.6777 19.1838 22.1152 18.7942 22.7331C18.2703 23.566 17.115 24.6273 16.2149 25.1244C15.1268 25.7155 13.6625 26.0245 12.0101 26.0245C9.33675 26.0245 7.5366 25.3259 5.83049 23.6063C4.21842 21.9943 3.68106 20.6912 3.68106 18.3671C3.68106 16.2042 4.19155 14.834 5.56181 13.3428C6.51562 12.3084 7.63064 11.5964 8.97403 11.1665C9.90098 10.8575 10.3174 10.8038 11.7414 10.7904C13.4744 10.7769 14.361 10.9516 15.5701 11.5158C15.8656 11.6636 16.2552 11.8248 16.4433 11.892C16.9001 12.0666 18.4584 13.2219 18.4584 13.3966C18.4584 13.4772 19.1435 13.5309 20.272 13.5309H22.0856L21.8572 13.0204C21.1049 11.3815 19.7884 9.94403 18.3644 9.20516C15.785 7.86177 12.6146 7.35128 9.64573 7.82147Z" fill="white"/>
<path d="M91.6599 10.5486C91.136 10.8172 90.827 11.0993 90.5314 11.583C90.1687 12.1606 90.1284 12.3487 90.1284 13.2622C90.1284 14.1623 90.1822 14.3638 90.5046 14.8474C91.0554 15.6937 91.8077 16.1236 92.8152 16.1908C93.2854 16.2177 93.8899 16.1774 94.1586 16.0833C94.8169 15.8684 95.5557 15.1967 95.8513 14.5384C96.1468 13.8936 96.1871 12.6308 95.9319 12.0128C95.2333 10.3605 93.2988 9.68878 91.6599 10.5486ZM94.1989 10.6426C95.4483 11.1665 96.1065 12.483 95.811 13.8533C95.5289 15.2101 93.9302 16.258 92.6137 15.9624C91.0688 15.6131 90.2359 14.4713 90.3568 12.9129C90.5046 11.0859 92.4659 9.93059 94.1989 10.6426Z" fill="white"/>
<path d="M92.2109 12.9802C92.2109 14.0952 92.2512 14.337 92.4124 14.337C92.5602 14.337 92.614 14.1892 92.614 13.7728V13.2085L93.1916 13.7728C93.917 14.4848 94.5216 14.5922 93.8364 13.8802L93.4066 13.4369L93.7424 13.2085C94.1723 12.9399 94.2126 12.3353 93.823 11.986C93.6752 11.8517 93.2588 11.7174 92.8826 11.6771L92.2109 11.6099V12.9802ZM93.4334 12.1876C93.9305 12.4562 93.5678 13.1279 92.9364 13.1279C92.6543 13.1279 92.614 13.0742 92.614 12.5906C92.614 12.1338 92.6543 12.0532 92.8961 12.0532C93.0438 12.0532 93.2857 12.1204 93.4334 12.1876Z" fill="white"/>
<path d="M73.1482 15.9624C72.3018 16.1101 70.9584 16.6744 70.636 17.0371C70.3002 17.4132 70.1927 17.3595 70.1524 16.7147L70.1121 16.1505H69.0374H67.9627L67.9224 22.4241L67.8955 28.7112H69.024H70.1524L70.2061 24.372C70.2733 19.5358 70.2867 19.4686 71.2406 18.5148C71.9257 17.8297 72.9064 17.4938 73.9273 17.6013L74.6796 17.6819L74.9886 16.9028C75.1498 16.4729 75.2842 16.0564 75.2842 15.9624C75.2842 15.7877 74.2229 15.7877 73.1482 15.9624Z" fill="white"/>
<path d="M29.6084 16.1505C27.7008 16.5804 25.8335 17.8566 24.9469 19.3209C24.1811 20.5971 23.9124 22.3973 24.2483 23.8616C25.0543 27.3678 29.1651 29.6382 33.1953 28.7918C34.5252 28.5097 35.9224 27.9052 36.5672 27.3275L36.8628 27.0589V27.8783V28.7112H37.9375H39.0122V22.4645V16.2177H37.9375H36.8628V17.0237V17.8163L36.1239 17.3058C34.5387 16.1908 31.6773 15.6803 29.6084 16.1505ZM33.9476 18.2193C35.0089 18.6895 35.9895 19.6299 36.4597 20.5837C36.7418 21.1479 36.7956 21.4569 36.7956 22.4645C36.7956 23.9153 36.5 24.6542 35.4925 25.6617C33.4505 27.7171 29.6622 27.7171 27.6202 25.6617C26.7067 24.7482 26.3305 23.9019 26.2768 22.666C26.1828 20.839 27.0963 19.2941 28.789 18.3805C29.8368 17.8298 30.4816 17.6954 31.9056 17.7626C32.8326 17.8029 33.2356 17.8835 33.9476 18.2193Z" fill="white"/>
<path d="M56.7449 16.164C54.8507 16.567 52.97 17.8432 52.0834 19.321C50.9952 21.1345 50.9683 23.6064 52.0028 25.5274C52.8088 26.9917 54.8642 28.362 56.8793 28.7919C59.4049 29.3292 62.5215 28.5769 64.2411 27.032C65.3292 26.0514 65.3427 25.9976 64.4291 25.4603C64.0127 25.2185 63.6365 25.0035 63.5962 24.9766C63.5559 24.9632 63.1932 25.2722 62.7768 25.6618C61.8498 26.5619 61.0438 26.9514 59.7541 27.1395C57.954 27.3948 56.1135 26.9111 54.9313 25.8767C54.3671 25.3797 53.6551 24.3453 53.6551 24.0228C53.6551 23.8482 54.7701 23.6198 59.8079 22.7869L65.9472 21.7659L65.9337 21.2151C65.9203 20.3822 65.1814 18.9985 64.2411 18.085C62.4409 16.3118 59.5123 15.5595 56.7449 16.164ZM60.7348 18.0716C61.1244 18.2194 61.7289 18.5552 62.0916 18.8239C62.8305 19.3613 63.5694 20.3285 63.3813 20.5031C63.3141 20.5569 61.1781 20.9599 58.6257 21.3764C56.0732 21.7928 53.8566 22.169 53.6954 22.1958C53.4402 22.263 53.3864 22.2093 53.3864 21.9406C53.3864 21.3092 53.9372 20.127 54.5283 19.4687C55.1732 18.7567 56.4225 18.0179 57.3092 17.8298C58.1958 17.6417 59.9422 17.7626 60.7348 18.0716Z" fill="white"/>
<path d="M76.8286 16.3521C76.7883 16.4193 77.9705 19.0255 79.4483 22.1556L82.135 27.8247L81.7858 28.577C80.9932 30.2159 79.1796 34.1118 79.1796 34.1655C79.1796 34.1924 79.6901 34.2192 80.3215 34.2192H81.4768L81.8529 33.3729C82.0679 32.9161 83.9352 28.9263 86.0175 24.5065C88.0863 20.0867 89.7924 16.4058 89.7924 16.3387C89.7924 16.2715 89.2953 16.2178 88.6774 16.2178H87.5624L87.1728 17.0507C86.9578 17.5209 86.4339 18.6493 86.004 19.5762C85.5607 20.5032 84.9965 21.7122 84.7278 22.2899C84.4725 22.8541 84.0292 23.7811 83.7605 24.3453L83.2769 25.3931L82.3366 23.3915C81.8261 22.2899 81.0738 20.6644 80.6573 19.7778C80.2409 18.8911 79.7035 17.7224 79.4483 17.185L78.9915 16.2178H77.9571C77.3794 16.2178 76.8824 16.2715 76.8286 16.3521Z" fill="white"/>
<path d="M41.5646 30.9682C40.8929 31.304 40.4227 32.2578 40.5436 33.0773C40.6779 33.8833 41.1347 34.4073 42.2497 34.9715C43.2841 35.482 43.6603 35.979 43.5125 36.6507C43.311 37.5642 42.1691 37.6851 41.3362 36.8925L40.8929 36.4492L40.557 36.7716C40.369 36.9463 40.2212 37.1344 40.2212 37.2015C40.2212 37.4702 41.2422 38.2359 41.793 38.3971C43.3782 38.8405 44.6275 37.806 44.4932 36.1537C44.4126 35.2133 43.9827 34.6759 42.8408 34.0848C42.3438 33.8296 41.8467 33.4803 41.7258 33.3191C41.0004 32.2041 42.3438 31.304 43.2976 32.2578L43.62 32.5802L43.9558 32.1772L44.3051 31.7608L43.8887 31.3846C43.4856 31.0353 42.7199 30.7264 42.2363 30.7264C42.1288 30.7264 41.8198 30.8338 41.5646 30.9682Z" fill="white"/>
<path d="M50.0954 30.901C49.3566 31.089 48.2684 32.204 47.9729 33.0638C47.4624 34.5684 47.8116 36.4895 48.7789 37.4836C49.4103 38.1418 49.8805 38.3837 50.6999 38.4777C52.5807 38.6926 54.1928 36.9194 54.1928 34.6222C54.1928 33.3728 53.8704 32.5265 53.0778 31.7339C52.1508 30.8069 51.3179 30.5785 50.0954 30.901ZM51.8284 32.0697C54.2196 33.225 53.3196 37.6985 50.7537 37.403C49.4909 37.2686 48.7655 36.2477 48.752 34.6222C48.752 33.3459 49.1685 32.5265 50.0551 32.0831C50.7671 31.7339 51.1433 31.7339 51.8284 32.0697Z" fill="white"/>
<path d="M55.4019 34.5549V38.2493H55.872H56.3422L56.3691 36.0864L56.4094 33.9101L57.9409 36.1133C58.7872 37.3223 59.5261 38.3702 59.5932 38.4374C59.647 38.518 59.7007 36.8656 59.7007 34.7833V30.995H59.2305H58.7603V33.1578C58.7603 34.4743 58.7066 35.2804 58.6394 35.2266C58.5588 35.1863 57.8334 34.1922 57.0139 33.01C56.1945 31.8279 55.4959 30.8606 55.4556 30.8606C55.4287 30.8606 55.4019 32.5264 55.4019 34.5549Z" fill="white"/>
<path d="M32.497 31.2235C32.5373 31.3578 33.1015 32.943 33.7329 34.7566C34.3509 36.5702 34.9151 38.1285 34.9688 38.236C35.036 38.3435 35.2913 37.7793 35.6405 36.7583C35.963 35.8448 36.5137 34.2327 36.8765 33.1849C37.2392 32.137 37.5347 31.2101 37.5347 31.1295C37.5347 31.0354 37.3332 30.9951 37.0511 31.022L36.554 31.0623L35.842 33.1311C35.4525 34.273 35.1032 35.2671 35.0763 35.3477C35.0494 35.4283 34.8614 34.985 34.6464 34.3536C34.4449 33.7222 34.0956 32.7147 33.8807 32.0967L33.4777 30.9951H32.9403C32.4836 30.9951 32.4164 31.0354 32.497 31.2235Z" fill="white"/>
<path d="M38.3408 34.6221V38.2493H38.8782H39.4155V34.6221V30.9949H38.8782H38.3408V34.6221Z" fill="white"/>
<path d="M45.5947 34.6221V38.2493H46.0649H46.5351V34.6221V30.9949H46.0649H45.5947V34.6221Z" fill="white"/>
</svg>
