<svg width="414" height="2133" viewBox="0 0 414 2133" fill="none" xmlns="http://www.w3.org/2000/svg">
<g opacity="0.6" clip-path="url(#clip0_191_252)" filter="url(#filter0_f_191_252)">
<path fill-rule="evenodd" clip-rule="evenodd" d="M432.478 353.139C479.554 342.073 503.731 414.641 544.566 440.548C585.751 466.678 658.88 458.522 672.432 505.377C686.737 554.834 615.98 589.776 602.064 639.343C590.897 679.115 629.593 731.198 600.732 760.753C571.325 790.868 516.135 751.266 477.186 767.224C430.513 786.348 411.099 855.262 360.804 859.06C311.565 862.777 251.428 832.268 235.715 785.456C218.649 734.609 293.202 689.169 285.944 636.029C278.78 583.57 177.016 556.482 197.792 507.783C218.288 459.739 306.194 515.066 349.81 486.326C394.343 456.981 380.56 365.343 432.478 353.139Z" fill="#FCFF58" fill-opacity="0.21"/>
<path fill-rule="evenodd" clip-rule="evenodd" d="M19.2449 -147.889C15.8068 -59.2375 79.4205 34.2958 38.5147 113.021C-1.80658 190.622 -101.376 214.754 -184.029 243.322C-265.428 271.458 -356.133 309.76 -435.765 276.954C-515.397 244.148 -544.069 148.131 -590.762 75.7624C-625.291 22.2482 -639.682 -38.9616 -674.153 -92.5131C-720.57 -164.625 -834.352 -207.548 -828.187 -293.086C-822.243 -375.573 -715.709 -409.984 -647.866 -457.279C-594.155 -494.722 -537.813 -527.756 -473.553 -540.309C-415.007 -551.745 -357.855 -522.893 -298.263 -525.571C-217.968 -529.179 -136.631 -592.243 -63.5733 -558.732C7.37598 -526.189 41.5375 -439.152 56.962 -362.634C71.5724 -290.155 22.1103 -221.771 19.2449 -147.889Z" fill="#3AFFFF" fill-opacity="0.18"/>
<path fill-rule="evenodd" clip-rule="evenodd" d="M264.946 75.2647C320.218 94.9565 322.698 179.099 372.489 210.151C423.515 241.972 507.09 202.827 544.724 249.745C580.332 294.135 566.402 367.405 538.352 416.924C512.018 463.413 440.352 459.005 404.006 498.158C369.764 535.046 385.154 610.345 339.386 631.259C295.176 651.461 245.124 613.672 202.551 590.214C166.685 570.451 149.009 530.401 114.985 507.609C63.0927 472.847 -19.2882 478.211 -47.7042 422.57C-75.0256 369.071 -42.0697 303.346 -17.2751 248.629C7.56817 193.805 42.3101 142.277 93.5801 110.783C144.321 79.6136 208.855 55.281 264.946 75.2647Z" fill="#32EBE0" fill-opacity="0.16"/>
<path fill-rule="evenodd" clip-rule="evenodd" d="M320.082 1124.82C298.082 1159.05 294.283 1200.32 274.106 1235.65C250.41 1277.15 235.276 1330.55 191.572 1349.87C147.897 1369.19 95.9259 1351.91 51.6413 1334.04C12.0902 1318.07 -6.40709 1271.17 -45.5303 1254.18C-106.865 1227.56 -186.173 1251.6 -237.359 1208.58C-293.811 1161.13 -332.222 1086.76 -332.468 1013.02C-332.722 937.054 -294.423 861.201 -238.693 809.581C-184.863 759.72 -104.897 758.832 -34.7644 737.266C31.3307 716.943 106.57 645.711 162.644 686.174C230.972 735.48 164.59 869.571 227.014 926.165C284.971 978.709 423.027 881.487 456.215 952.327C487.828 1019.81 360.374 1062.14 320.082 1124.82Z" fill="#DA2130" fill-opacity="0.26"/>
<path fill-rule="evenodd" clip-rule="evenodd" d="M767.691 1636.58C729.329 1704.88 618.103 1689.19 566.036 1747.71C512.678 1807.69 545.319 1926.5 475.126 1965.45C408.714 2002.31 315.487 1967.47 256.684 1919.39C201.479 1874.26 223.435 1780.94 180.135 1724.29C139.341 1670.91 36.8345 1674.2 19.6479 1609.25C3.04669 1546.52 64.0327 1489.17 104.485 1438.43C138.565 1395.68 195.225 1381.45 232.873 1341.81C290.294 1281.35 301.814 1171.73 381.403 1146.87C457.926 1122.97 536.939 1181.15 603.313 1226.11C669.818 1271.16 729.754 1328.49 759.616 1403.06C789.17 1476.86 806.621 1567.27 767.691 1636.58Z" fill="#125FA6" fill-opacity="0.08"/>
</g>
<defs>
<filter id="filter0_f_191_252" x="-151.505" y="0.49501" width="717.01" height="2227.01" filterUnits="userSpaceOnUse" color-interpolation-filters="sRGB">
<feFlood flood-opacity="0" result="BackgroundImageFix"/>
<feBlend mode="normal" in="SourceGraphic" in2="BackgroundImageFix" result="shape"/>
<feGaussianBlur stdDeviation="75.7525" result="effect1_foregroundBlur_191_252"/>
</filter>
<clipPath id="clip0_191_252">
<rect width="414" height="1924" fill="white" transform="translate(0 152)"/>
</clipPath>
</defs>
</svg>
