<svg width="687" height="1067" viewBox="0 0 687 1067" fill="none" xmlns="http://www.w3.org/2000/svg">
<g filter="url(#filter0_f_11_137)">
<path fill-rule="evenodd" clip-rule="evenodd" d="M163.356 753.525C174.863 743.293 178.915 724.084 193.685 719.734C208.245 715.445 223.24 725.002 236.755 731.908C250.066 738.709 265.768 745.451 271.241 759.361C276.713 773.271 268.148 788.407 264.709 802.953C262.165 813.71 256.238 822.872 253.683 833.626C250.243 848.108 258.557 867.507 247.112 877.024C236.076 886.201 218.957 877.01 204.88 874.209C193.735 871.992 182.825 868.915 173.525 862.384C165.053 856.434 161.789 845.813 154.287 838.679C144.178 829.066 126.504 826.473 121.911 813.302C117.449 800.51 124.231 785.767 131.95 774.634C139.262 764.089 153.767 762.053 163.356 753.525Z" fill="#3AFFFF" fill-opacity="0.43"/>
<path fill-rule="evenodd" clip-rule="evenodd" d="M330.778 430.395C306.807 409.603 292.907 383.374 284.085 352.893C272.523 312.947 250.808 269.151 274.145 234.73C300.052 196.519 351.078 179.872 396.728 186.749C439.433 193.182 475.751 226.444 489.929 267.237C501.369 300.155 464.349 326.974 457.328 361.109C448.07 406.12 484.12 469.374 443.813 491.442C404.295 513.078 364.811 459.916 330.778 430.395Z" fill="#FC23CC" fill-opacity="0.24"/>
<path fill-rule="evenodd" clip-rule="evenodd" d="M309.092 757.526C292.733 738.105 310.165 706.137 298.332 683.669C286.206 660.645 246.432 657.02 242.604 631.281C238.983 606.928 260.175 582.603 281.461 570.232C301.446 558.618 327.267 575.91 349.392 569.221C370.237 562.919 380.914 531.436 402.581 533.617C423.51 535.723 433.971 560.764 444.762 578.819C453.854 594.03 451.722 612.847 459.464 628.788C471.272 653.1 503.229 669.081 501.708 696.066C500.246 722.012 473.59 739.365 452.386 754.388C431.14 769.441 406.914 781.101 380.883 781.671C355.12 782.235 325.694 777.235 309.092 757.526Z" fill="#125FA6"/>
<path fill-rule="evenodd" clip-rule="evenodd" d="M101.13 576.422C93.2472 565.847 81.1556 559.994 72.73 549.846C62.8349 537.928 48.3543 527.254 47.4662 511.79C46.5787 496.335 57.7419 482.53 68.2095 471.126C77.5582 460.941 93.9002 460.669 103.51 450.73C118.576 435.148 120.313 408.341 139.199 397.706C160.028 385.978 186.973 382.791 209.381 391.114C232.464 399.689 251.122 419.951 260.441 442.744C269.442 464.759 260.605 489.129 259.162 512.869C257.802 535.243 270.851 566.19 252.185 578.599C229.44 593.721 196.305 558.303 172.02 570.802C149.473 582.407 163.255 635.378 137.976 637.382C113.896 639.291 115.565 595.789 101.13 576.422Z" fill="#DA2130" fill-opacity="0.47"/>
</g>
<defs>
<filter id="filter0_f_11_137" x="-140.092" y="0.142853" width="840.184" height="1117.95" filterUnits="userSpaceOnUse" color-interpolation-filters="sRGB">
<feFlood flood-opacity="0" result="BackgroundImageFix"/>
<feBlend mode="normal" in="SourceGraphic" in2="BackgroundImageFix" result="shape"/>
<feGaussianBlur stdDeviation="92.5459" result="effect1_foregroundBlur_11_137"/>
</filter>
</defs>
</svg>
